<svg xmlns="http://www.w3.org/2000/svg" width="648" height="889" viewBox="0 0 648 889" fill="none">
  <g filter="url(#filter0_f_101_116)"><path fill-rule="evenodd" clip-rule="evenodd" d="M91.7305 44.1953C65.7731 44.1953 44.7305 65.2379 44.7305 91.1953V205.195C44.7305 231.153 65.7731 252.195 91.7305 252.195H220.23L220.23 636.195H91.7305C65.7731 636.195 44.7305 657.238 44.7305 683.195V797.195C44.7305 823.153 65.7731 844.195 91.7305 844.195H556.73C582.688 844.195 603.73 823.153 603.73 797.195V683.195C603.73 657.238 582.688 636.195 556.73 636.195H428.23L428.23 252.195H556.73C582.688 252.195 603.73 231.153 603.73 205.195V91.1953C603.73 65.2379 582.688 44.1953 556.73 44.1953H91.7305Z" fill="#0F0F16"/><path d="M220.73 252.195V251.695H220.23H91.7305C66.0492 251.695 45.2305 230.877 45.2305 205.195V91.1953C45.2305 65.5141 66.0492 44.6953 91.7305 44.6953H556.73C582.412 44.6953 603.23 65.5141 603.23 91.1953V205.195C603.23 230.877 582.412 251.695 556.73 251.695H428.23H427.73V252.195L427.73 636.195V636.695H428.23H556.73C582.412 636.695 603.23 657.514 603.23 683.195V797.195C603.23 822.877 582.412 843.695 556.73 843.695H91.7305C66.0492 843.695 45.2305 822.877 45.2305 797.195V683.195C45.2305 657.514 66.0492 636.695 91.7305 636.695H220.23H220.73V636.195L220.73 252.195Z" stroke="#232854"/></g><mask id="path-3-inside-1_101_116" fill="white"><path fill-rule="evenodd" clip-rule="evenodd" d="M44.7305 91.1953C44.7305 65.2379 65.7731 44.1953 91.7305 44.1953H556.73C582.688 44.1953 603.73 65.2379 603.73 91.1953V205.195C603.73 226.643 589.365 244.735 569.73 250.374V638.016C589.365 643.656 603.73 661.748 603.73 683.195V797.195C603.73 823.153 582.688 844.195 556.73 844.195H91.7305C65.7731 844.195 44.7305 823.153 44.7305 797.195V683.195C44.7305 661.385 59.586 643.045 79.7305 637.741V250.65C59.586 245.346 44.7305 227.005 44.7305 205.195V91.1953Z"/></mask><path d="M569.73 250.374L569.454 249.413L568.73 249.621V250.374H569.73ZM569.73 638.016H568.73V638.77L569.454 638.977L569.73 638.016ZM79.7305 637.741L79.9851 638.708L80.7305 638.512V637.741H79.7305ZM79.7305 250.65H80.7305V249.879L79.9851 249.682L79.7305 250.65ZM91.7305 43.1953C65.2208 43.1953 43.7305 64.6857 43.7305 91.1953H45.7305C45.7305 65.7902 66.3254 45.1953 91.7305 45.1953V43.1953ZM556.73 43.1953H91.7305V45.1953H556.73V43.1953ZM604.73 91.1953C604.73 64.6856 583.24 43.1953 556.73 43.1953V45.1953C582.136 45.1953 602.73 65.7902 602.73 91.1953H604.73ZM604.73 205.195V91.1953H602.73V205.195H604.73ZM570.007 251.335C590.058 245.576 604.73 227.101 604.73 205.195H602.73C602.73 226.185 588.671 243.894 569.454 249.413L570.007 251.335ZM570.73 638.016V250.374H568.73V638.016H570.73ZM604.73 683.195C604.73 661.29 590.058 642.814 570.007 637.055L569.454 638.977C588.671 644.497 602.73 662.206 602.73 683.195H604.73ZM604.73 797.195V683.195H602.73V797.195H604.73ZM556.73 845.195C583.24 845.195 604.73 823.705 604.73 797.195H602.73C602.73 822.6 582.136 843.195 556.73 843.195V845.195ZM91.7305 845.195H556.73V843.195H91.7305V845.195ZM43.7305 797.195C43.7305 823.705 65.2208 845.195 91.7305 845.195V843.195C66.3254 843.195 45.7305 822.6 45.7305 797.195H43.7305ZM43.7305 683.195V797.195H45.7305V683.195H43.7305ZM79.4759 636.774C58.9031 642.191 43.7305 660.92 43.7305 683.195H45.7305C45.7305 661.851 60.269 643.899 79.9851 638.708L79.4759 636.774ZM78.7305 250.65V637.741H80.7305V250.65H78.7305ZM43.7305 205.195C43.7305 227.471 58.9031 246.2 79.4759 251.617L79.9851 249.682C60.269 244.491 45.7305 226.54 45.7305 205.195H43.7305ZM43.7305 91.1953V205.195H45.7305V91.1953H43.7305Z" fill="#232854" mask="url(#path-3-inside-1_101_116)"/><g filter="url(#filter1_ddi_101_116)"><path fill-rule="evenodd" clip-rule="evenodd" d="M413.387 76.1953H239.246C236.982 85.9367 228.247 93.1953 217.816 93.1953H178.816C168.386 93.1953 159.651 85.9367 157.387 76.1953H113.408L79.8164 109.787V791.195H533.317L569.816 754.695V113.695L532.316 76.1953H495.246C492.982 85.9367 484.247 93.1953 473.816 93.1953H434.816C424.386 93.1953 415.651 85.9367 413.387 76.1953Z" fill="black" fill-opacity="0.01" shape-rendering="crispEdges"/></g><path fill-rule="evenodd" clip-rule="evenodd" d="M413.387 76.1953H239.246C236.982 85.9367 228.247 93.1953 217.816 93.1953H178.816C168.386 93.1953 159.651 85.9367 157.387 76.1953H113.408L79.8164 109.787V791.195H533.317L569.816 754.695V113.695L532.316 76.1953H495.246C492.982 85.9367 484.247 93.1953 473.816 93.1953H434.816C424.386 93.1953 415.651 85.9367 413.387 76.1953Z" fill="#0C0B0F" fill-opacity="0.26"/><g style="mix-blend-mode: color-dodge" filter="url(#filter2_d_101_116)"><path fill-rule="evenodd" clip-rule="evenodd" d="M413.387 76.1953H239.246C236.982 85.9367 228.247 93.1953 217.816 93.1953H178.816C168.386 93.1953 159.651 85.9367 157.387 76.1953H113.408L79.8164 109.787V791.195H533.317L569.816 754.695V113.695L532.316 76.1953H495.246C492.982 85.9367 484.247 93.1953 473.816 93.1953H434.816C424.386 93.1953 415.651 85.9367 413.387 76.1953Z" fill="url(#paint0_radial_101_116)" fill-opacity="0.99" shape-rendering="crispEdges"/></g><path d="M217.816 94.1953C228.444 94.1953 237.386 86.9879 240.026 77.1953H412.607C415.247 86.9879 424.189 94.1953 434.816 94.1953H473.816C484.444 94.1953 493.386 86.9879 496.026 77.1953H531.902L568.816 114.11V754.281L532.902 790.195H80.8164V110.201L113.822 77.1953H156.607C159.247 86.9879 168.189 94.1953 178.816 94.1953H217.816Z" fill="url(#paint1_radial_101_116)" fill-opacity="0.5" style="mix-blend-mode: color-dodge"/><path d="M217.816 94.1953C228.444 94.1953 237.386 86.9879 240.026 77.1953H412.607C415.247 86.9879 424.189 94.1953 434.816 94.1953H473.816C484.444 94.1953 493.386 86.9879 496.026 77.1953H531.902L568.816 114.11V754.281L532.902 790.195H80.8164V110.201L113.822 77.1953H156.607C159.247 86.9879 168.189 94.1953 178.816 94.1953H217.816Z" fill="url(#paint2_radial_101_116)" fill-opacity="0.5" style="mix-blend-mode: color-dodge"/><path d="M217.816 94.1953C228.444 94.1953 237.386 86.9879 240.026 77.1953H412.607C415.247 86.9879 424.189 94.1953 434.816 94.1953H473.816C484.444 94.1953 493.386 86.9879 496.026 77.1953H531.902L568.816 114.11V754.281L532.902 790.195H80.8164V110.201L113.822 77.1953H156.607C159.247 86.9879 168.189 94.1953 178.816 94.1953H217.816Z" fill="url(#paint3_radial_101_116)" fill-opacity="0.5" style="mix-blend-mode: color-dodge"/><path d="M217.816 94.1953C228.444 94.1953 237.386 86.9879 240.026 77.1953H412.607C415.247 86.9879 424.189 94.1953 434.816 94.1953H473.816C484.444 94.1953 493.386 86.9879 496.026 77.1953H531.902L568.816 114.11V754.281L532.902 790.195H80.8164V110.201L113.822 77.1953H156.607C159.247 86.9879 168.189 94.1953 178.816 94.1953H217.816Z" fill="url(#paint4_radial_101_116)" fill-opacity="0.5" style="mix-blend-mode: color-dodge"/><path d="M217.816 94.1953C228.444 94.1953 237.386 86.9879 240.026 77.1953H412.607C415.247 86.9879 424.189 94.1953 434.816 94.1953H473.816C484.444 94.1953 493.386 86.9879 496.026 77.1953H531.902L568.816 114.11V754.281L532.902 790.195H80.8164V110.201L113.822 77.1953H156.607C159.247 86.9879 168.189 94.1953 178.816 94.1953H217.816Z" stroke="#AD86FF" stroke-width="2"/><path d="M 81.425 695.195 L 569.27 695.195 L 569.27 753.695 L 533.51 790.826 L 81.425 791.195 L 81.425 695.195 Z" fill="#AD86FF"/><path d="M325.231 315.009L325.23 78.207M317.73 314.472V95.8923L299.23 77.1953M332.73 314.472V95.8923L351.23 77.1953M310.73 314.74V99.4295L288.73 77.1953M340.73 314.472V99.4295L362.73 77.1953M326.23 408.861L326.229 579.426M333.73 408.861V561.741L352.23 580.438M318.73 408.861V561.741L300.23 580.438M340.73 409.196V558.203L362.73 580.438M310.73 408.663V558.203L288.73 580.438M222.047 314.195H422.67L452.27 361.695L422.67 409.195H222.047L193.27 361.695L222.047 314.195ZM222.27 611.695C222.27 594.298 236.373 580.195 253.77 580.195H393.77C411.167 580.195 425.27 594.298 425.27 611.695C425.27 629.092 411.167 643.195 393.77 643.195H253.77C236.373 643.195 222.27 629.092 222.27 611.695Z" stroke="#AD86FF" stroke-width="2"/><path d="M324.27 695.195V790.195M79.2695 694.195L567.27 694.195" stroke="#AD86FF" stroke-width="2"/><path fill-rule="evenodd" clip-rule="evenodd" d="M508.022 178.34C518.825 174.017 526.472 163.311 526.472 150.79C526.472 134.445 513.443 121.195 497.371 121.195C481.299 121.195 468.27 134.445 468.27 150.79C468.27 161.175 473.529 170.31 481.487 175.592C482.053 174.572 483.099 173.887 484.296 173.887C484.561 173.887 484.784 173.64 484.718 173.383C484.298 171.754 484.074 170.039 484.074 168.268C484.074 157.616 492.179 148.981 502.178 148.981C502.865 148.981 503.471 148.518 503.7 147.87C503.719 147.817 503.738 147.764 503.758 147.712C504.229 146.452 503.444 144.669 502.133 144.367C495.433 142.822 490.117 137.345 488.445 130.331C488.253 129.526 489.159 128.99 489.818 129.492L516.234 149.589C516.521 149.807 516.655 150.172 516.592 150.528C516.411 151.549 516.316 152.603 516.316 153.68C516.316 155.014 516.462 156.313 516.736 157.558C516.815 157.919 516.693 158.3 516.388 158.509C515.047 159.424 513.445 159.956 511.726 159.956C510.329 159.956 509.01 159.605 507.846 158.983C507.502 158.799 507.106 158.728 506.727 158.818C506.075 158.973 505.615 159.556 505.615 160.226V172.395C505.615 172.911 505.197 173.329 504.681 173.329H503.175C502.671 173.329 502.263 172.929 502.197 172.43C501.637 168.201 498.224 164.947 494.096 164.947C493.834 164.947 493.575 164.96 493.319 164.986C493.015 165.016 492.795 165.28 492.795 165.586C492.795 165.921 493.059 166.193 493.391 166.239C496.79 166.71 499.415 169.792 499.415 173.524C499.415 174.025 499.368 174.515 499.278 174.988C499.177 175.515 499.556 176.047 500.093 176.047H500.855C500.866 176.047 500.875 176.056 500.875 176.067C500.875 176.078 500.884 176.087 500.895 176.087H506.789C506.854 176.087 506.917 176.112 506.963 176.158L506.963 176.158C507.137 176.33 507.31 176.502 507.472 176.678C507.822 177.058 507.964 177.593 508.022 178.34ZM480.603 146.69C480.115 146.301 480.41 145.564 481.034 145.564H497.66C498.284 145.564 498.579 146.301 498.091 146.69C495.655 148.63 492.628 149.779 489.347 149.779C486.066 149.779 483.038 148.63 480.603 146.69ZM512.103 151.993C512.103 152.915 511.398 153.662 510.528 153.662C509.658 153.662 508.953 152.915 508.953 151.993C508.953 151.072 509.658 150.324 510.528 150.324C511.398 150.324 512.103 151.072 512.103 151.993Z" fill="#DAE0FF"/>

  <g filter="url(#filter3_dd_101_116)"><text fill="#0F0F16" xml:space="preserve" style="white-space: pre" font-family="Arial" font-size="26" font-weight="bold" letter-spacing="0.07em">
      <tspan style="text-anchor: middle;" y="750" x="325">CLAIMED</tspan>
  </text></g>
  <g filter="url(#filter5_dd_101_116)"><text fill="#DAE0FF" font-family="Arial" font-size="26" letter-spacing="0em" x="50%" y="615" dominant-baseline="middle" text-anchor="middle">
    <tspan>RabbitHole</tspan>
  </text></g>
  <g filter="url(#filter7_dd_101_116)"><text fill="#DAE0FF" font-family="Arial" font-size="39.7583" letter-spacing="0.05em" x="50%" y="365" dominant-baseline="middle" text-anchor="middle">
      4000 UNI
  </text></g>

  <path d="M499 351V363M499 363L499 375M499 363H487M499 363H511M499 370C495.134 370 492 366.866 492 363C492 359.134 495.134 356 499 356C502.866 356 506 359.134 506 363C506 366.866 502.866 370 499 370Z" stroke="#AD86FF" stroke-width="2"/><path d="M146 351V363M146 363L146 375M146 363H134M146 363H158M146 370C142.134 370 139 366.866 139 363C139 359.134 142.134 356 146 356C149.866 356 153 359.134 153 363C153 366.866 149.866 370 146 370Z" stroke="#AD86FF" stroke-width="2"/><path d="M499 607V619M499 619L499 631M499 619H487M499 619H511M499 626C495.134 626 492 622.866 492 619C492 615.134 495.134 612 499 612C502.866 612 506 615.134 506 619C506 622.866 502.866 626 499 626Z" stroke="#AD86FF" stroke-width="2"/><path d="M146 607V619M146 619L146 631M146 619H134M146 619H158M146 626C142.134 626 139 622.866 139 619C139 615.134 142.134 612 146 612C149.866 612 153 615.134 153 619C153 622.866 149.866 626 146 626Z" stroke="#AD86FF" stroke-width="2"/>
  <defs><filter id="filter0_f_101_116" x="0.730469" y="0.195312" width="647" height="888" filterUnits="userSpaceOnUse" color-interpolation-filters="sRGB"><feFlood flood-opacity="0" result="BackgroundImageFix"/><feBlend mode="normal" in="SourceGraphic" in2="BackgroundImageFix" result="shape"/><feGaussianBlur stdDeviation="22" result="effect1_foregroundBlur_101_116"/></filter><filter id="filter1_ddi_101_116" x="13.8164" y="10.1953" width="622" height="847" filterUnits="userSpaceOnUse" color-interpolation-filters="sRGB"><feFlood flood-opacity="0" result="BackgroundImageFix"/><feColorMatrix in="SourceAlpha" type="matrix" values="0 0 0 0 0 0 0 0 0 0 0 0 0 0 0 0 0 0 127 0" result="hardAlpha"/><feOffset/><feGaussianBlur stdDeviation="1"/><feComposite in2="hardAlpha" operator="out"/><feColorMatrix type="matrix" values="0 0 0 0 0.756 0 0 0 0 0.2375 0 0 0 0 1 0 0 0 1 0"/><feBlend mode="normal" in2="BackgroundImageFix" result="effect1_dropShadow_101_116"/><feColorMatrix in="SourceAlpha" type="matrix" values="0 0 0 0 0 0 0 0 0 0 0 0 0 0 0 0 0 0 127 0" result="hardAlpha"/><feOffset/><feGaussianBlur stdDeviation="33"/><feComposite in2="hardAlpha" operator="out"/><feColorMatrix type="matrix" values="0 0 0 0 0.6095 0 0 0 0 0.1125 0 0 0 0 1 0 0 0 0.83 0"/><feBlend mode="normal" in2="effect1_dropShadow_101_116" result="effect2_dropShadow_101_116"/><feBlend mode="normal" in="SourceGraphic" in2="effect2_dropShadow_101_116" result="shape"/><feColorMatrix in="SourceAlpha" type="matrix" values="0 0 0 0 0 0 0 0 0 0 0 0 0 0 0 0 0 0 127 0" result="hardAlpha"/><feOffset/><feGaussianBlur stdDeviation="1"/><feComposite in2="hardAlpha" operator="arithmetic" k2="-1" k3="1"/><feColorMatrix type="matrix" values="0 0 0 0 0.63 0 0 0 0 0.5375 0 0 0 0 1 0 0 0 1 0"/><feBlend mode="normal" in2="shape" result="effect3_innerShadow_101_116"/></filter><filter id="filter2_d_101_116" x="75.8164" y="76.1953" width="498" height="723" filterUnits="userSpaceOnUse" color-interpolation-filters="sRGB"><feFlood flood-opacity="0" result="BackgroundImageFix"/><feColorMatrix in="SourceAlpha" type="matrix" values="0 0 0 0 0 0 0 0 0 0 0 0 0 0 0 0 0 0 127 0" result="hardAlpha"/><feOffset dy="4"/><feGaussianBlur stdDeviation="2"/><feComposite in2="hardAlpha" operator="out"/><feColorMatrix type="matrix" values="0 0 0 0 0 0 0 0 0 0 0 0 0 0 0 0 0 0 0.25 0"/><feBlend mode="normal" in2="BackgroundImageFix" result="effect1_dropShadow_101_116"/><feBlend mode="normal" in="SourceGraphic" in2="effect1_dropShadow_101_116" result="shape"/></filter><filter id="filter3_dd_101_116" y="675.584" height="136.611" filterUnits="userSpaceOnUse" color-interpolation-filters="sRGB" x="100" width="450"><feFlood flood-opacity="0" result="BackgroundImageFix"/><feColorMatrix in="SourceAlpha" type="matrix" values="0 0 0 0 0 0 0 0 0 0 0 0 0 0 0 0 0 0 127 0" result="hardAlpha"/><feOffset/><feGaussianBlur stdDeviation="1.5"/><feComposite in2="hardAlpha" operator="out"/><feColorMatrix type="matrix" values="0 0 0 0 0.966867 0 0 0 0 0.585833 0 0 0 0 1 0 0 0 0.87 0"/><feBlend mode="normal" in2="BackgroundImageFix" result="effect1_dropShadow_101_116"/><feColorMatrix in="SourceAlpha" type="matrix" values="0 0 0 0 0 0 0 0 0 0 0 0 0 0 0 0 0 0 127 0" result="hardAlpha"/><feOffset/><feGaussianBlur stdDeviation="29.5"/><feComposite in2="hardAlpha" operator="out"/><feColorMatrix type="matrix" values="0 0 0 0 0.624167 0 0 0 0 0.145833 0 0 0 0 1 0 0 0 0.91 0"/><feBlend mode="normal" in2="effect1_dropShadow_101_116" result="effect2_dropShadow_101_116"/><feBlend mode="normal" in="SourceGraphic" in2="effect2_dropShadow_101_116" result="shape"/></filter><filter id="filter4_dd_101_116" x="101.536" y="670.267" width="196.107" height="137.246" filterUnits="userSpaceOnUse" color-interpolation-filters="sRGB"><feFlood flood-opacity="0" result="BackgroundImageFix"/><feColorMatrix in="SourceAlpha" type="matrix" values="0 0 0 0 0 0 0 0 0 0 0 0 0 0 0 0 0 0 127 0" result="hardAlpha"/><feOffset/><feGaussianBlur stdDeviation="1.5"/><feComposite in2="hardAlpha" operator="out"/><feColorMatrix type="matrix" values="0 0 0 0 0.966867 0 0 0 0 0.585833 0 0 0 0 1 0 0 0 0.87 0"/><feBlend mode="normal" in2="BackgroundImageFix" result="effect1_dropShadow_101_116"/><feColorMatrix in="SourceAlpha" type="matrix" values="0 0 0 0 0 0 0 0 0 0 0 0 0 0 0 0 0 0 127 0" result="hardAlpha"/><feOffset/><feGaussianBlur stdDeviation="29.5"/><feComposite in2="hardAlpha" operator="out"/><feColorMatrix type="matrix" values="0 0 0 0 0.624167 0 0 0 0 0.145833 0 0 0 0 1 0 0 0 0.91 0"/><feBlend mode="normal" in2="effect1_dropShadow_101_116" result="effect2_dropShadow_101_116"/><feBlend mode="normal" in="SourceGraphic" in2="effect2_dropShadow_101_116" result="shape"/></filter><filter id="filter5_dd_101_116" x="203.166" y="543.389" width="243.62" height="136.916" filterUnits="userSpaceOnUse" color-interpolation-filters="sRGB"><feFlood flood-opacity="0" result="BackgroundImageFix"/><feColorMatrix in="SourceAlpha" type="matrix" values="0 0 0 0 0 0 0 0 0 0 0 0 0 0 0 0 0 0 127 0" result="hardAlpha"/><feOffset/><feGaussianBlur stdDeviation="1.5"/><feComposite in2="hardAlpha" operator="out"/><feColorMatrix type="matrix" values="0 0 0 0 0.966867 0 0 0 0 0.585833 0 0 0 0 1 0 0 0 0.87 0"/><feBlend mode="normal" in2="BackgroundImageFix" result="effect1_dropShadow_101_116"/><feColorMatrix in="SourceAlpha" type="matrix" values="0 0 0 0 0 0 0 0 0 0 0 0 0 0 0 0 0 0 127 0" result="hardAlpha"/><feOffset/><feGaussianBlur stdDeviation="29.5"/><feComposite in2="hardAlpha" operator="out"/><feColorMatrix type="matrix" values="0 0 0 0 0.624167 0 0 0 0 0.145833 0 0 0 0 1 0 0 0 0.91 0"/><feBlend mode="normal" in2="effect1_dropShadow_101_116" result="effect2_dropShadow_101_116"/><feBlend mode="normal" in="SourceGraphic" in2="effect2_dropShadow_101_116" result="shape"/></filter><filter id="filter6_dd_101_116" x="65.4844" y="60.9609" width="168.568" height="177.471" filterUnits="userSpaceOnUse" color-interpolation-filters="sRGB"><feFlood flood-opacity="0" result="BackgroundImageFix"/><feColorMatrix in="SourceAlpha" type="matrix" values="0 0 0 0 0 0 0 0 0 0 0 0 0 0 0 0 0 0 127 0" result="hardAlpha"/><feOffset/><feGaussianBlur stdDeviation="1.5"/><feComposite in2="hardAlpha" operator="out"/><feColorMatrix type="matrix" values="0 0 0 0 0.966867 0 0 0 0 0.585833 0 0 0 0 1 0 0 0 0.87 0"/><feBlend mode="normal" in2="BackgroundImageFix" result="effect1_dropShadow_101_116"/><feColorMatrix in="SourceAlpha" type="matrix" values="0 0 0 0 0 0 0 0 0 0 0 0 0 0 0 0 0 0 127 0" result="hardAlpha"/><feOffset/><feGaussianBlur stdDeviation="29.5"/><feComposite in2="hardAlpha" operator="out"/><feColorMatrix type="matrix" values="0 0 0 0 0.624167 0 0 0 0 0.145833 0 0 0 0 1 0 0 0 0.91 0"/><feBlend mode="normal" in2="effect1_dropShadow_101_116" result="effect2_dropShadow_101_116"/><feBlend mode="normal" in="SourceGraphic" in2="effect2_dropShadow_101_116" result="shape"/></filter><filter id="filter7_dd_101_116" x="196.876" y="290.619" width="247.7" height="147.062" filterUnits="userSpaceOnUse" color-interpolation-filters="sRGB"><feFlood flood-opacity="0" result="BackgroundImageFix"/><feColorMatrix in="SourceAlpha" type="matrix" values="0 0 0 0 0 0 0 0 0 0 0 0 0 0 0 0 0 0 127 0" result="hardAlpha"/><feOffset/><feGaussianBlur stdDeviation="1.5"/><feComposite in2="hardAlpha" operator="out"/><feColorMatrix type="matrix" values="0 0 0 0 0.966867 0 0 0 0 0.585833 0 0 0 0 1 0 0 0 0.87 0"/><feBlend mode="normal" in2="BackgroundImageFix" result="effect1_dropShadow_101_116"/><feColorMatrix in="SourceAlpha" type="matrix" values="0 0 0 0 0 0 0 0 0 0 0 0 0 0 0 0 0 0 127 0" result="hardAlpha"/><feOffset/><feGaussianBlur stdDeviation="29.5"/><feComposite in2="hardAlpha" operator="out"/><feColorMatrix type="matrix" values="0 0 0 0 0.624167 0 0 0 0 0.145833 0 0 0 0 1 0 0 0 0.91 0"/><feBlend mode="normal" in2="effect1_dropShadow_101_116" result="effect2_dropShadow_101_116"/><feBlend mode="normal" in="SourceGraphic" in2="effect2_dropShadow_101_116" result="shape"/></filter><radialGradient id="paint0_radial_101_116" cx="0" cy="0" r="1" gradientUnits="userSpaceOnUse" gradientTransform="translate(325.816 380.195) scale(784.184 761.17)"><stop offset="0.0104167" stop-color="#BD00FF" stop-opacity="0.39"/><stop offset="0.135417" stop-color="#EC7BFF" stop-opacity="0.22"/><stop offset="0.270833" stop-color="#F25AFF" stop-opacity="0.48"/><stop offset="1" stop-color="#010039" stop-opacity="0.69"/></radialGradient><radialGradient id="paint1_radial_101_116" cx="0" cy="0" r="1" gradientUnits="userSpaceOnUse" gradientTransform="translate(320.316 57.1953) rotate(88.6238) scale(333.096 579.761)"><stop stop-color="#8F00FF" stop-opacity="0.51"/><stop offset="1" stop-color="#1C231B" stop-opacity="0"/><stop offset="1" stop-opacity="0"/></radialGradient><radialGradient id="paint2_radial_101_116" cx="0" cy="0" r="1" gradientUnits="userSpaceOnUse" gradientTransform="translate(327.816 815.695) rotate(-90) scale(345 877.774)"><stop stop-color="#C13FFF"/><stop offset="1" stop-color="#1C231B" stop-opacity="0"/><stop offset="1" stop-color="#C00DFF" stop-opacity="0"/></radialGradient><radialGradient id="paint3_radial_101_116" cx="0" cy="0" r="1" gradientUnits="userSpaceOnUse" gradientTransform="translate(64.3164 384.195) rotate(-0.427577) scale(268.007 1148.68)"><stop stop-color="#B946FF"/><stop offset="1" stop-color="#1C231B" stop-opacity="0"/><stop offset="1" stop-color="#860DFF" stop-opacity="0"/></radialGradient><radialGradient id="paint4_radial_101_116" cx="0" cy="0" r="1" gradientUnits="userSpaceOnUse" gradientTransform="translate(574.316 382.195) rotate(180) scale(242 1277.43)"><stop stop-color="#DD0FFF" stop-opacity="0.91"/><stop offset="1" stop-color="#1C231B" stop-opacity="0"/><stop offset="1" stop-color="#A30DFF" stop-opacity="0"/></radialGradient></defs>
</svg>