<svg xmlns="http://www.w3.org/2000/svg" width="623" height="848"><defs><radialGradient id="a" cx="18.03" cy="-23.85" r="1" gradientTransform="matrix(-778.44 0 0 -755.59 14341.92 -17655.24)" gradientUnits="userSpaceOnUse"><stop offset="0.01" stop-color="#de80ff" stop-opacity="0.39"/><stop offset="0.14" stop-color="#ec7bff" stop-opacity="0.22"/><stop offset="0.27" stop-color="#f25aff" stop-opacity="0.48"/><stop offset="1" stop-color="#1c231b" stop-opacity="0"/></radialGradient><radialGradient id="b" cx="17.91" cy="-23.86" r="1" gradientTransform="matrix(8 333 -579.59 13.92 -13669.05 -5581.04)" gradientUnits="userSpaceOnUse"><stop offset="0" stop-color="#8f00ff" stop-opacity="0.51"/><stop offset="1" stop-color="#1c231b" stop-opacity="0"/></radialGradient><radialGradient id="c" cx="18.09" cy="-23.91" r="1" gradientTransform="matrix(0 -345 877.77 0 21305.27 7045.5)" gradientUnits="userSpaceOnUse"><stop offset="0" stop-color="#c13fff"/><stop offset="1" stop-color="#1c231b" stop-opacity="0"/></radialGradient><radialGradient id="d" cx="17.93" cy="-23.91" r="1" gradientTransform="matrix(268 -2 8.57 1148.65 -4548.99 27879.6)" gradientUnits="userSpaceOnUse"><stop offset="0" stop-color="#b946ff"/><stop offset="1" stop-color="#1c231b" stop-opacity="0"/></radialGradient><radialGradient id="e" cx="18.07" cy="-23.87" r="1" gradientTransform="matrix(-242 0 0 -1277.43 4934.5 -30115.86)" gradientUnits="userSpaceOnUse"><stop offset="0" stop-color="#dd0fff" stop-opacity="0.91"/><stop offset="1" stop-color="#1c231b" stop-opacity="0"/></radialGradient></defs><path d="M.5.5h622v847H.5z" style="stroke: #000;stroke-miterlimit: 10"/><path d="M399.6 66H225.4A22 22 0 0 1 204 83h-39a22 22 0 0 1-21.4-17h-44L66 99.6V781h453.5l36.5-36.5v-641L518.5 66h-37.1A22 22 0 0 1 460 83h-39a22 22 0 0 1-21.4-17Z" style="fill: #0c0b0f;fill-opacity: 0.25999999046325684;fill-rule: evenodd" transform="translate(.4 .5)"/><path d="M399.6 66H225.4A22 22 0 0 1 204 83h-39a22 22 0 0 1-21.4-17h-44L66 99.6V781h453.5l36.5-36.5v-641L518.5 66h-37.1A22 22 0 0 1 460 83h-39a22 22 0 0 1-21.4-17Z" style="fill-opacity: 0.9900000095367432;fill-rule: evenodd;fill: url(#a)" transform="translate(.4 .5)"/><path d="M399.6 66H225.4A22 22 0 0 1 204 83h-39a22 22 0 0 1-21.4-17h-44L66 99.6V781h453.5l36.5-36.5v-641L518.5 66h-37.1A22 22 0 0 1 460 83h-39a22 22 0 0 1-21.4-17Z" style="fill-opacity: 0.5;fill-rule: evenodd;fill: url(#b)" transform="translate(.4 .5)"/><path d="M399.6 66H225.4A22 22 0 0 1 204 83h-39a22 22 0 0 1-21.4-17h-44L66 99.6V781h453.5l36.5-36.5v-641L518.5 66h-37.1A22 22 0 0 1 460 83h-39a22 22 0 0 1-21.4-17Z" style="fill-opacity: 0.5;fill-rule: evenodd;fill: url(#c)" transform="translate(.4 .5)"/><path d="M399.6 66H225.4A22 22 0 0 1 204 83h-39a22 22 0 0 1-21.4-17h-44L66 99.6V781h453.5l36.5-36.5v-641L518.5 66h-37.1A22 22 0 0 1 460 83h-39a22 22 0 0 1-21.4-17Z" style="fill-opacity: 0.5;fill-rule: evenodd;fill: url(#d)" transform="translate(.4 .5)"/><path d="M399.6 66H225.4A22 22 0 0 1 204 83h-39a22 22 0 0 1-21.4-17h-44L66 99.6V781h453.5l36.5-36.5v-641L518.5 66h-37.1A22 22 0 0 1 460 83h-39a22 22 0 0 1-21.4-17Z" style="fill-opacity: 0.5;fill-rule: evenodd;fill: url(#e)" transform="translate(.4 .5)"/><path d="M204 84a23 23 0 0 0 22.2-17h172.6A23 23 0 0 0 421 84h39a23 23 0 0 0 22.2-17h35.9l36.9 36.9v640.2L519.1 780H67V100l33-33h42.8A23 23 0 0 0 165 84Z" style="fill: none;stroke: #ad86ff;stroke-width: 2px" transform="translate(.4 .5)"/><path d="M311.5 304.8V68M304 304.3V85.7L285.5 67M319 304.3V85.7L337.5 67M297 304.5V89.2L275 67m52 237.3v-215L349 67m-36.5 331.7v170.6m7.5-170.6v152.9l18.5 18.7M305 398.7v152.9l-18.5 18.7M327 399v149l22 22.2m-52-171.7V548l-22 22.2m-66.5 31.3A31.5 31.5 0 0 1 240 570h140a31.5 31.5 0 0 1 0 63H240a31.5 31.5 0 0 1-31.5-31.5ZM485.3 340.8v12m0 0v12m0-12h-12m12 0h12m-12 7a7 7 0 1 1 7-7 7 7 0 0 1-7 7ZM132.3 340.8v12m0 0v12m0-12h-12m12 0h12m-12 7a7 7 0 1 1 7-7 7 7 0 0 1-7 7ZM485.3 596.8v12m0 0v12m0-12h-12m12 0h12m-12 7a7 7 0 1 1 7-7 7 7 0 0 1-7 7ZM132.3 596.8v12m0 0v12m0-12h-12m12 0h12m-12 7a7 7 0 1 1 7-7 7 7 0 0 1-7 7Z" style="fill: none;stroke: #ad86ff;stroke-width: 2px" transform="translate(.4 .5)"/><path d="M242.3 714v21h4v-9.1h3.6c1.3 0 1.9 1.3 1.9 4v5.1h3.9v-6.6a3.7 3.7 0 0 0-2.8-4c2-.8 2.7-2.5 2.7-4.6 0-4.1-1.5-5.8-4.7-5.8Zm4 2.6h3.7c1.2 0 1.9 1.3 1.9 3.4s-.7 3.3-1.9 3.3h-3.7Zm14-2.6v21h12.8v-2.6h-8.7v-6.7h6.4v-2.5h-6.4v-6.6h8.7V714Zm17.4 0v21h9.5c2.4 0 3.9-2.5 3.9-5.7v-9.5c0-3.3-1.6-5.8-3.9-5.8Zm4.1 2.6h3.7c1.1 0 1.8 1.5 1.8 3.2v9.5c0 1.6-.7 3.1-1.8 3.1h-3.7Zm13.9-2.6v21h12.9v-2.6h-8.8v-6.7h6.4v-2.5h-6.4v-6.6h8.8V714Zm17.7 0v21h12.9v-2.6h-8.8v-6.7h6.4v-2.5h-6.4v-6.6h8.8V714Zm17.4 0v21h3v-13.2l2.1 13.2h3.2l2.3-13.3V735h2.9v-21h-4l-2.7 16-2.8-16Zm18 0v21h12.9v-2.6h-8.8v-6.7h6.4v-2.5h-6.4v-6.6h8.8V714Zm17.5 0v21h9.4c2.4 0 4-2.5 4-5.7v-9.5c0-3.3-1.6-5.8-4-5.8Zm4 2.6h3.7c1.2 0 1.9 1.5 1.9 3.2v9.5c0 1.6-.7 3.1-1.9 3.1h-3.7ZM245.1 604.2v7.5h-3.6v-20.1h8.3a8.67 8.67 0 0 1 5.4 1.6 6.11 6.11 0 0 1 1.8 4.7 5.7 5.7 0 0 1-4.1 5.7l4.9 8.1h-4l-4.4-7.5Zm0-9.6v6.6h4.3a4.6 4.6 0 0 0 3.1-.8 3.59 3.59 0 0 0 0-5 4.6 4.6 0 0 0-3.1-.8ZM271.7 611.7h-3.4c0-.4-.1-.8-.1-1.2a3.7 3.7 0 0 1-.1-1.1 3.89 3.89 0 0 1-1.7 1.9 6.12 6.12 0 0 1-2.9.7 4.51 4.51 0 0 1-3.3-1.2 3.5 3.5 0 0 1-1.3-3 3.7 3.7 0 0 1 1.2-2.9 6.65 6.65 0 0 1 3.8-1.4l4.1-.5v-.7a2.49 2.49 0 0 0-.7-1.9 2.72 2.72 0 0 0-1.9-.7 2.37 2.37 0 0 0-1.8.6 2.3 2.3 0 0 0-.8 1.6h-3.3a4.49 4.49 0 0 1 1.8-3.5 6.35 6.35 0 0 1 4.2-1.3 6 6 0 0 1 4.4 1.4 5.29 5.29 0 0 1 1.5 4.1v7.5Zm-9.4-4.1a1.7 1.7 0 0 0 .6 1.4 2.5 2.5 0 0 0 1.6.5 3.68 3.68 0 0 0 2.5-.9 3.22 3.22 0 0 0 1-2.5v-.8l-3.1.3a5.09 5.09 0 0 0-2 .7 1.49 1.49 0 0 0-.6 1.3ZM282.5 612a5.21 5.21 0 0 1-2.7-.7 4.41 4.41 0 0 1-1.7-1.9v2.3h-3.4V591h3.5v8.7a3.89 3.89 0 0 1 1.7-1.9 4.59 4.59 0 0 1 2.6-.7 5.61 5.61 0 0 1 4.4 2 9.42 9.42 0 0 1 0 10.8 5.4 5.4 0 0 1-4.4 2.1Zm-1-12.3a3 3 0 0 0-2.5 1.2 5.68 5.68 0 0 0-.9 3.4v.5a5.92 5.92 0 0 0 .9 3.4 3 3 0 0 0 2.5 1.2 3.39 3.39 0 0 0 2.7-1.3 6.4 6.4 0 0 0 .9-3.6 6.08 6.08 0 0 0-.9-3.5 3.1 3.1 0 0 0-2.7-1.3ZM298.9 612a5 5 0 0 1-2.7-.7 4.41 4.41 0 0 1-1.7-1.9v2.3h-3.4V591h3.5v8.7a3.89 3.89 0 0 1 1.7-1.9 4.59 4.59 0 0 1 2.6-.7 5.61 5.61 0 0 1 4.4 2 9.42 9.42 0 0 1 0 10.8 5.4 5.4 0 0 1-4.4 2.1Zm-1-12.3a3 3 0 0 0-2.5 1.2 5.68 5.68 0 0 0-.9 3.4v.5a5.92 5.92 0 0 0 .9 3.4 3 3 0 0 0 2.5 1.2 3.5 3.5 0 0 0 2.7-1.3 6.4 6.4 0 0 0 .9-3.6 6.08 6.08 0 0 0-.9-3.5 3.21 3.21 0 0 0-2.7-1.3ZM311.1 595h-3.7v-3.5h3.7Zm-.2 16.7h-3.4v-14.3h3.4ZM319.9 609h.9l.9-.2v2.8l-1.4.3h-1.4a4.41 4.41 0 0 1-3.2-1 4.21 4.21 0 0 1-1.1-3.1V600h-1.9v-2.6h1.9v-3.6h3.5v3.6h3.3v2.6h-3.3v7.2a2 2 0 0 0 .4 1.4 1.82 1.82 0 0 0 1.4.4ZM327.8 611.7h-3.6v-20.1h3.6v8.4h10v-8.4h3.5v20.1h-3.5V603h-10ZM350.9 597.1a6.48 6.48 0 0 1 5 2 8.77 8.77 0 0 1 0 10.9 6.69 6.69 0 0 1-5 2 6.89 6.89 0 0 1-5.1-2 8.77 8.77 0 0 1 0-10.9 6.63 6.63 0 0 1 5.1-2Zm0 2.6a3.22 3.22 0 0 0-2.6 1.3 5.77 5.77 0 0 0-.9 3.5 6.4 6.4 0 0 0 .9 3.6 3.1 3.1 0 0 0 2.6 1.2 2.9 2.9 0 0 0 2.5-1.2 5.68 5.68 0 0 0 1-3.6 5.4 5.4 0 0 0-1-3.5 3 3 0 0 0-2.5-1.3ZM363.8 591v20.7h-3.5V591ZM376.3 607.2h3.2a5.19 5.19 0 0 1-2.2 3.5 6.07 6.07 0 0 1-4.1 1.3 6.88 6.88 0 0 1-5-2 8.77 8.77 0 0 1 0-10.9 6.69 6.69 0 0 1 5-2 5.49 5.49 0 0 1 4.6 2 7.29 7.29 0 0 1 1.7 5.2v1.1h-9.9a4.62 4.62 0 0 0 1.1 2.9 3.32 3.32 0 0 0 2.5 1.1 2.9 2.9 0 0 0 1.9-.6 3.41 3.41 0 0 0 1.2-1.6Zm-3.1-7.5a3 3 0 0 0-2.3.9 4.55 4.55 0 0 0-1.2 2.5h6.5a3.61 3.61 0 0 0-.8-2.4 2.7 2.7 0 0 0-2.2-1ZM494.3 168.1a29.2 29.2 0 1 0-26.5-2.7 3.2 3.2 0 0 1 2.8-1.7c.2 0 .5-.3.4-.5a21.47 21.47 0 0 1-.7-5.1c0-10.7 8.1-19.3 18.1-19.3a1.92 1.92 0 0 0 1.6-1.1v-.2a2.6 2.6 0 0 0-1.6-3.3 18.91 18.91 0 0 1-13.7-14.1.81.81 0 0 1 1.4-.8l26.4 20.1a1.08 1.08 0 0 1 .4.9 18.25 18.25 0 0 0 .1 7.1.79.79 0 0 1-.3.9 8.1 8.1 0 0 1-8.6.5 1.38 1.38 0 0 0-1.1-.2 1.51 1.51 0 0 0-1.1 1.4v12.2a.9.9 0 0 1-.9.9h-1.6a.9.9 0 0 1-.9-.9 8.4 8.4 0 0 0-8.1-7.4h-.8a.6.6 0 0 0 .1 1.2 7.3 7.3 0 0 1 6 7.3 7.52 7.52 0 0 1-.2 1.5.9.9 0 0 0 .68 1.08h7.02a1.21 1.21 0 0 1 .5.5 2.58 2.58 0 0 1 .6 1.72Zm-27.4-31.6a.6.6 0 0 1 .4-1.1h16.6a.6.6 0 0 1 .5 1.1 14.56 14.56 0 0 1-8.8 3.1 14 14 0 0 1-8.7-3.1Zm31.5 5.3a1.6 1.6 0 1 1-1.6-1.7 1.7 1.7 0 0 1 1.6 1.7Z" style="fill: #dae0ff" transform="translate(.4 .5)"/><text style="font-size: 44px;fill: #fff;font-family: ArialMT, Arial;text-align:center;" alignment-baseline="middle" text-anchor="middle" transform="translate(311, 370.9)">10000 ETH</text></svg>